<svg width="1440" height="1024" viewBox="0 0 1440 1024" fill="none" xmlns="http://www.w3.org/2000/svg">
<rect width="1440" height="1024" fill="#1E1E1E"/>
<rect width="1440" height="1024" fill="#6AFF79"/>
<g filter="url(#filter0_f_0_1)">
<path d="M723.277 404.176V412H684.253V343.216H693.517V404.176H723.277ZM742.877 412H733.565V343.216H742.877V412ZM806.984 351.04H784.712V412H775.448V351.04H753.128V343.216H806.984V351.04ZM863.702 351.04H841.43V412H832.166V351.04H809.846V343.216H863.702V351.04ZM912.933 404.176V412H873.909V343.216H883.173V404.176H912.933ZM965.654 404.416L965.606 412H923.222V343.216H965.606V350.8H932.534V373.648H959.318V380.944H932.534V404.416H965.654ZM1038.37 353.968C1038.09 354.448 1037.77 354.816 1037.41 355.072C1037.09 355.296 1036.69 355.408 1036.21 355.408C1035.67 355.408 1035.03 355.136 1034.29 354.592C1033.56 354.048 1032.63 353.456 1031.51 352.816C1030.42 352.144 1029.09 351.536 1027.53 350.992C1025.99 350.448 1024.12 350.176 1021.91 350.176C1019.83 350.176 1017.99 350.464 1016.39 351.04C1014.82 351.584 1013.49 352.336 1012.41 353.296C1011.35 354.256 1010.55 355.392 1010.01 356.704C1009.46 357.984 1009.19 359.376 1009.19 360.88C1009.19 362.8 1009.65 364.4 1010.58 365.68C1011.54 366.928 1012.79 368 1014.33 368.896C1015.89 369.792 1017.65 370.576 1019.61 371.248C1021.59 371.888 1023.61 372.56 1025.65 373.264C1027.73 373.968 1029.75 374.768 1031.7 375.664C1033.69 376.528 1035.45 377.632 1036.98 378.976C1038.55 380.32 1039.8 381.968 1040.73 383.92C1041.69 385.872 1042.17 388.272 1042.17 391.12C1042.17 394.128 1041.65 396.96 1040.63 399.616C1039.61 402.24 1038.1 404.528 1036.12 406.48C1034.17 408.432 1031.75 409.968 1028.87 411.088C1026.02 412.208 1022.77 412.768 1019.13 412.768C1014.65 412.768 1010.58 411.968 1006.93 410.368C1003.29 408.736 1000.17 406.544 997.574 403.792L1000.26 399.376C1000.52 399.024 1000.82 398.736 1001.17 398.512C1001.56 398.256 1001.97 398.128 1002.42 398.128C1002.84 398.128 1003.3 398.304 1003.81 398.656C1004.36 398.976 1004.97 399.392 1005.64 399.904C1006.31 400.416 1007.08 400.976 1007.94 401.584C1008.81 402.192 1009.78 402.752 1010.87 403.264C1011.99 403.776 1013.25 404.208 1014.66 404.56C1016.07 404.88 1017.65 405.04 1019.41 405.04C1021.62 405.04 1023.59 404.736 1025.32 404.128C1027.05 403.52 1028.5 402.672 1029.69 401.584C1030.9 400.464 1031.83 399.136 1032.47 397.6C1033.11 396.064 1033.43 394.352 1033.43 392.464C1033.43 390.384 1032.95 388.688 1031.99 387.376C1031.06 386.032 1029.83 384.912 1028.29 384.016C1026.76 383.12 1025 382.368 1023.01 381.76C1021.03 381.12 1019.01 380.48 1016.97 379.84C1014.92 379.168 1012.9 378.4 1010.92 377.536C1008.93 376.672 1007.17 375.552 1005.64 374.176C1004.1 372.8 1002.85 371.088 1001.89 369.04C1000.97 366.96 1000.5 364.4 1000.5 361.36C1000.5 358.928 1000.97 356.576 1001.89 354.304C1002.85 352.032 1004.23 350.016 1006.02 348.256C1007.85 346.496 1010.07 345.088 1012.69 344.032C1015.35 342.976 1018.39 342.448 1021.81 342.448C1025.65 342.448 1029.14 343.056 1032.28 344.272C1035.45 345.488 1038.23 347.248 1040.63 349.552L1038.37 353.968ZM1090.62 386.464L1079.82 358.48C1079.5 357.648 1079.17 356.688 1078.82 355.6C1078.46 354.48 1078.13 353.296 1077.81 352.048C1077.14 354.64 1076.45 356.8 1075.74 358.528L1064.94 386.464H1090.62ZM1110.02 412H1102.82C1101.98 412 1101.31 411.792 1100.8 411.376C1100.29 410.96 1099.9 410.432 1099.65 409.792L1093.22 393.184H1062.35L1055.92 409.792C1055.73 410.368 1055.36 410.88 1054.82 411.328C1054.27 411.776 1053.6 412 1052.8 412H1045.6L1073.1 343.216H1082.51L1110.02 412ZM1174.79 343.216V412H1170.14C1169.4 412 1168.78 411.872 1168.27 411.616C1167.79 411.36 1167.31 410.928 1166.83 410.32L1127.03 358.48C1127.1 359.28 1127.15 360.064 1127.18 360.832C1127.21 361.6 1127.23 362.32 1127.23 362.992V412H1119.07V343.216H1123.87C1124.28 343.216 1124.63 343.248 1124.92 343.312C1125.21 343.344 1125.47 343.424 1125.69 343.552C1125.91 343.648 1126.14 343.808 1126.36 344.032C1126.59 344.224 1126.83 344.48 1127.08 344.8L1166.87 396.592C1166.81 395.76 1166.75 394.96 1166.68 394.192C1166.65 393.392 1166.63 392.64 1166.63 391.936V343.216H1174.79ZM1240.67 397.792C1241.18 397.792 1241.63 398 1242.01 398.416L1245.71 402.4C1242.89 405.664 1239.47 408.208 1235.43 410.032C1231.43 411.856 1226.59 412.768 1220.89 412.768C1215.96 412.768 1211.48 411.92 1207.45 410.224C1203.42 408.496 1199.98 406.096 1197.13 403.024C1194.28 399.92 1192.07 396.208 1190.51 391.888C1188.94 387.568 1188.15 382.816 1188.15 377.632C1188.15 372.448 1188.97 367.696 1190.6 363.376C1192.23 359.056 1194.52 355.344 1197.47 352.24C1200.44 349.136 1203.99 346.736 1208.12 345.04C1212.25 343.312 1216.81 342.448 1221.8 342.448C1226.7 342.448 1231.02 343.232 1234.76 344.8C1238.51 346.368 1241.8 348.496 1244.65 351.184L1241.58 355.456C1241.39 355.776 1241.13 356.048 1240.81 356.272C1240.52 356.464 1240.12 356.56 1239.61 356.56C1239.03 356.56 1238.33 356.256 1237.5 355.648C1236.67 355.008 1235.58 354.304 1234.23 353.536C1232.89 352.768 1231.21 352.08 1229.19 351.472C1227.18 350.832 1224.7 350.512 1221.75 350.512C1218.2 350.512 1214.95 351.136 1212.01 352.384C1209.07 353.6 1206.52 355.376 1204.38 357.712C1202.27 360.048 1200.62 362.896 1199.43 366.256C1198.25 369.616 1197.66 373.408 1197.66 377.632C1197.66 381.92 1198.27 385.744 1199.48 389.104C1200.73 392.464 1202.41 395.312 1204.52 397.648C1206.67 399.952 1209.18 401.712 1212.06 402.928C1214.97 404.144 1218.11 404.752 1221.47 404.752C1223.51 404.752 1225.35 404.64 1226.99 404.416C1228.65 404.16 1230.17 403.776 1231.55 403.264C1232.95 402.752 1234.25 402.112 1235.43 401.344C1236.65 400.544 1237.85 399.6 1239.03 398.512C1239.58 398.032 1240.12 397.792 1240.67 397.792ZM1312.23 343.216V412H1302.92V380.704H1265.81V412H1256.5V343.216H1265.81V373.888H1302.92V343.216H1312.23ZM1366.34 386.464L1355.54 358.48C1355.22 357.648 1354.89 356.688 1354.54 355.6C1354.18 354.48 1353.85 353.296 1353.53 352.048C1352.86 354.64 1352.17 356.8 1351.46 358.528L1340.66 386.464H1366.34ZM1385.74 412H1378.54C1377.7 412 1377.03 411.792 1376.52 411.376C1376.01 410.96 1375.62 410.432 1375.37 409.792L1368.94 393.184H1338.07L1331.64 409.792C1331.45 410.368 1331.08 410.88 1330.54 411.328C1329.99 411.776 1329.32 412 1328.52 412H1321.32L1348.82 343.216H1358.23L1385.74 412ZM1203.34 448.6V506.272C1203.34 507.712 1202.83 508.216 1201.32 508.216C1199.88 508.288 1194.7 508.36 1189.37 508.144C1190.3 509.728 1191.31 512.248 1191.6 513.832C1198.44 513.832 1202.9 513.688 1205.5 512.752C1208.09 511.888 1209.17 510.304 1209.17 506.272V448.6H1203.34ZM1220.76 466.96C1226.88 477.256 1232.71 490.792 1234.44 499.288L1240.2 496.984C1238.33 488.272 1232.21 475.096 1225.94 464.944L1220.76 466.96ZM1184.47 465.448C1182.67 475.168 1178.71 487.624 1172.3 495.256C1173.74 495.832 1176.12 497.128 1177.42 498.136C1183.97 490.072 1188.14 477.04 1190.52 466.456L1184.47 465.448ZM1250.86 454.576V459.976H1305.29V454.576H1250.86ZM1255.46 478.12V483.52H1299.6V478.12H1255.46ZM1246.68 503.104V508.576H1309.18V503.104H1246.68ZM1326.96 485.536V490.648H1372.97V485.536H1326.96ZM1346.9 476.968V513.832H1352.38V476.968H1346.9ZM1333.22 494.464C1330.13 499.864 1324.58 504.976 1319.04 508.288C1320.34 509.08 1322.57 510.88 1323.58 511.96C1329.12 508.144 1335.17 502.312 1338.77 496.12L1333.22 494.464ZM1360.15 497.128C1365.7 501.376 1372.32 507.568 1375.34 511.6L1379.95 508.36C1376.71 504.256 1369.94 498.352 1364.4 494.176L1360.15 497.128ZM1349.78 467.32C1356.7 475.456 1369.8 483.232 1380.82 487.192C1381.54 485.752 1382.76 483.736 1383.91 482.368C1372.54 478.912 1360.01 471.64 1352.23 462.64H1346.76C1340.86 470.56 1328.98 478.84 1316.45 483.232C1317.46 484.456 1318.68 486.472 1319.26 487.84C1331.5 483.016 1343.74 474.88 1349.78 467.32ZM1318.39 453.784V458.824H1381.75V453.784H1318.39ZM1334.09 447.592V466.456H1339.42V447.592H1334.09ZM1360.01 447.592V466.456H1365.34V447.592H1360.01Z" fill="black" fill-opacity="0.72"/>
<path d="M723.277 404.176H724.277V403.176H723.277V404.176ZM723.277 412V413H724.277V412H723.277ZM684.253 412H683.253V413H684.253V412ZM684.253 343.216V342.216H683.253V343.216H684.253ZM693.517 343.216H694.517V342.216H693.517V343.216ZM693.517 404.176H692.517V405.176H693.517V404.176ZM722.277 404.176V412H724.277V404.176H722.277ZM723.277 411H684.253V413H723.277V411ZM685.253 412V343.216H683.253V412H685.253ZM684.253 344.216H693.517V342.216H684.253V344.216ZM692.517 343.216V404.176H694.517V343.216H692.517ZM693.517 405.176H723.277V403.176H693.517V405.176ZM742.877 412V413H743.877V412H742.877ZM733.565 412H732.565V413H733.565V412ZM733.565 343.216V342.216H732.565V343.216H733.565ZM742.877 343.216H743.877V342.216H742.877V343.216ZM742.877 411H733.565V413H742.877V411ZM734.565 412V343.216H732.565V412H734.565ZM733.565 344.216H742.877V342.216H733.565V344.216ZM741.877 343.216V412H743.877V343.216H741.877ZM806.984 351.04V352.04H807.984V351.04H806.984ZM784.712 351.04V350.04H783.712V351.04H784.712ZM784.712 412V413H785.712V412H784.712ZM775.448 412H774.448V413H775.448V412ZM775.448 351.04H776.448V350.04H775.448V351.04ZM753.128 351.04H752.128V352.04H753.128V351.04ZM753.128 343.216V342.216H752.128V343.216H753.128ZM806.984 343.216H807.984V342.216H806.984V343.216ZM806.984 350.04H784.712V352.04H806.984V350.04ZM783.712 351.04V412H785.712V351.04H783.712ZM784.712 411H775.448V413H784.712V411ZM776.448 412V351.04H774.448V412H776.448ZM775.448 350.04H753.128V352.04H775.448V350.04ZM754.128 351.04V343.216H752.128V351.04H754.128ZM753.128 344.216H806.984V342.216H753.128V344.216ZM805.984 343.216V351.04H807.984V343.216H805.984ZM863.702 351.04V352.04H864.702V351.04H863.702ZM841.43 351.04V350.04H840.43V351.04H841.43ZM841.43 412V413H842.43V412H841.43ZM832.166 412H831.166V413H832.166V412ZM832.166 351.04H833.166V350.04H832.166V351.04ZM809.846 351.04H808.846V352.04H809.846V351.04ZM809.846 343.216V342.216H808.846V343.216H809.846ZM863.702 343.216H864.702V342.216H863.702V343.216ZM863.702 350.04H841.43V352.04H863.702V350.04ZM840.43 351.04V412H842.43V351.04H840.43ZM841.43 411H832.166V413H841.43V411ZM833.166 412V351.04H831.166V412H833.166ZM832.166 350.04H809.846V352.04H832.166V350.04ZM810.846 351.04V343.216H808.846V351.04H810.846ZM809.846 344.216H863.702V342.216H809.846V344.216ZM862.702 343.216V351.04H864.702V343.216H862.702ZM912.933 404.176H913.933V403.176H912.933V404.176ZM912.933 412V413H913.933V412H912.933ZM873.909 412H872.909V413H873.909V412ZM873.909 343.216V342.216H872.909V343.216H873.909ZM883.173 343.216H884.173V342.216H883.173V343.216ZM883.173 404.176H882.173V405.176H883.173V404.176ZM911.933 404.176V412H913.933V404.176H911.933ZM912.933 411H873.909V413H912.933V411ZM874.909 412V343.216H872.909V412H874.909ZM873.909 344.216H883.173V342.216H873.909V344.216ZM882.173 343.216V404.176H884.173V343.216H882.173ZM883.173 405.176H912.933V403.176H883.173V405.176ZM965.654 404.416L966.653 404.422L966.66 403.416H965.654V404.416ZM965.606 412V413H966.599L966.605 412.006L965.606 412ZM923.222 412H922.222V413H923.222V412ZM923.222 343.216V342.216H922.222V343.216H923.222ZM965.606 343.216H966.606V342.216H965.606V343.216ZM965.606 350.8V351.8H966.606V350.8H965.606ZM932.534 350.8V349.8H931.534V350.8H932.534ZM932.534 373.648H931.534V374.648H932.534V373.648ZM959.318 373.648H960.318V372.648H959.318V373.648ZM959.318 380.944V381.944H960.318V380.944H959.318ZM932.534 380.944V379.944H931.534V380.944H932.534ZM932.534 404.416H931.534V405.416H932.534V404.416ZM964.654 404.41L964.606 411.994L966.605 412.006L966.653 404.422L964.654 404.41ZM965.606 411H923.222V413H965.606V411ZM924.222 412V343.216H922.222V412H924.222ZM923.222 344.216H965.606V342.216H923.222V344.216ZM964.606 343.216V350.8H966.606V343.216H964.606ZM965.606 349.8H932.534V351.8H965.606V349.8ZM931.534 350.8V373.648H933.534V350.8H931.534ZM932.534 374.648H959.318V372.648H932.534V374.648ZM958.318 373.648V380.944H960.318V373.648H958.318ZM959.318 379.944H932.534V381.944H959.318V379.944ZM931.534 380.944V404.416H933.534V380.944H931.534ZM932.534 405.416H965.654V403.416H932.534V405.416ZM1038.37 353.968L1039.23 354.482L1039.25 354.453L1039.26 354.423L1038.37 353.968ZM1037.41 355.072L1037.99 355.891L1038 355.886L1038 355.881L1037.41 355.072ZM1034.29 354.592L1034.89 353.788L1034.89 353.788L1034.29 354.592ZM1031.51 352.816L1030.98 353.667L1031 353.676L1031.01 353.684L1031.51 352.816ZM1027.53 350.992L1027.19 351.935L1027.2 351.937L1027.53 350.992ZM1016.39 351.04L1016.72 351.985L1016.73 351.981L1016.39 351.04ZM1012.41 353.296L1011.74 352.546L1011.74 352.551L1011.73 352.556L1012.41 353.296ZM1010.01 356.704L1010.93 357.095L1010.93 357.087L1010.01 356.704ZM1010.58 365.68L1009.77 366.267L1009.78 366.278L1009.79 366.29L1010.58 365.68ZM1014.33 368.896L1013.82 369.76L1013.83 369.764L1014.33 368.896ZM1019.61 371.248L1019.28 372.194L1019.29 372.197L1019.3 372.2L1019.61 371.248ZM1025.65 373.264L1025.33 374.21L1025.33 374.211L1025.65 373.264ZM1031.7 375.664L1031.29 376.573L1031.29 376.577L1031.3 376.581L1031.7 375.664ZM1036.98 378.976L1036.32 379.729L1036.33 379.735L1036.98 378.976ZM1040.73 383.92L1039.82 384.349L1039.83 384.361L1040.73 383.92ZM1040.63 399.616L1041.56 399.98L1041.56 399.976L1040.63 399.616ZM1036.12 406.48L1035.42 405.767L1035.41 405.773L1036.12 406.48ZM1028.87 411.088L1028.51 410.156L1028.5 410.157L1028.87 411.088ZM1006.93 410.368L1006.53 411.281L1006.53 411.284L1006.93 410.368ZM997.574 403.792L996.72 403.272L996.324 403.923L996.846 404.478L997.574 403.792ZM1000.26 399.376L999.454 398.788L999.429 398.821L999.408 398.856L1000.26 399.376ZM1001.17 398.512L1001.71 399.356L1001.72 399.35L1001.73 399.344L1001.17 398.512ZM1003.81 398.656L1003.25 399.48L1003.28 399.5L1003.31 399.518L1003.81 398.656ZM1005.64 399.904L1005.03 400.699L1005.03 400.699L1005.64 399.904ZM1007.94 401.584L1007.37 402.402L1007.37 402.402L1007.94 401.584ZM1010.87 403.264L1010.44 404.169L1010.45 404.173L1010.87 403.264ZM1014.66 404.56L1014.42 405.53L1014.43 405.533L1014.44 405.535L1014.66 404.56ZM1025.32 404.128L1025.65 405.071L1025.65 405.071L1025.32 404.128ZM1029.69 401.584L1030.36 402.32L1030.36 402.32L1029.69 401.584ZM1031.99 387.376L1031.17 387.944L1031.18 387.955L1031.18 387.967L1031.99 387.376ZM1023.01 381.76L1022.71 382.712L1022.71 382.714L1022.72 382.716L1023.01 381.76ZM1016.97 379.84L1016.65 380.79L1016.66 380.792L1016.67 380.794L1016.97 379.84ZM1005.64 374.176L1006.31 373.431L1006.31 373.431L1005.64 374.176ZM1001.89 369.04L1000.98 369.447L1000.98 369.456L1000.99 369.464L1001.89 369.04ZM1001.89 354.304L1000.97 353.915L1000.97 353.926L1001.89 354.304ZM1006.02 348.256L1005.33 347.536L1005.32 347.543L1006.02 348.256ZM1012.69 344.032L1012.32 343.103L1012.32 343.104L1012.69 344.032ZM1032.28 344.272L1031.92 345.204L1031.92 345.206L1032.28 344.272ZM1040.63 349.552L1041.52 350.007L1041.86 349.345L1041.32 348.831L1040.63 349.552ZM1037.52 353.454C1037.28 353.85 1037.04 354.105 1036.83 354.263L1038 355.881C1038.49 355.527 1038.89 355.046 1039.23 354.482L1037.52 353.454ZM1036.84 354.253C1036.72 354.335 1036.54 354.408 1036.21 354.408V356.408C1036.85 356.408 1037.46 356.257 1037.99 355.891L1036.84 354.253ZM1036.21 354.408C1035.99 354.408 1035.56 354.283 1034.89 353.788L1033.7 355.396C1034.5 355.989 1035.35 356.408 1036.21 356.408V354.408ZM1034.89 353.788C1034.11 353.213 1033.15 352.6 1032.01 351.948L1031.01 353.684C1032.11 354.312 1033.01 354.883 1033.7 355.396L1034.89 353.788ZM1032.04 351.965C1030.87 351.245 1029.47 350.609 1027.85 350.047L1027.2 351.937C1028.72 352.463 1029.97 353.043 1030.98 353.667L1032.04 351.965ZM1027.86 350.049C1026.19 349.457 1024.19 349.176 1021.91 349.176V351.176C1024.04 351.176 1025.79 351.439 1027.19 351.935L1027.86 350.049ZM1021.91 349.176C1019.74 349.176 1017.78 349.476 1016.05 350.099L1016.73 351.981C1018.2 351.452 1019.92 351.176 1021.91 351.176V349.176ZM1016.06 350.095C1014.39 350.676 1012.94 351.489 1011.74 352.546L1013.07 354.046C1014.05 353.183 1015.26 352.492 1016.72 351.985L1016.06 350.095ZM1011.73 352.556C1010.57 353.615 1009.68 354.872 1009.08 356.321L1010.93 357.087C1011.42 355.912 1012.13 354.897 1013.08 354.036L1011.73 352.556ZM1009.09 356.313C1008.49 357.726 1008.19 359.253 1008.19 360.88H1010.19C1010.19 359.499 1010.44 358.242 1010.93 357.095L1009.09 356.313ZM1008.19 360.88C1008.19 362.965 1008.7 364.782 1009.77 366.267L1011.39 365.093C1010.61 364.018 1010.19 362.635 1010.19 360.88H1008.19ZM1009.79 366.29C1010.84 367.653 1012.19 368.807 1013.82 369.76L1014.83 368.032C1013.39 367.193 1012.25 366.203 1011.37 365.07L1009.79 366.29ZM1013.83 369.764C1015.46 370.695 1017.28 371.504 1019.28 372.194L1019.93 370.302C1018.03 369.648 1016.33 368.889 1014.82 368.028L1013.83 369.764ZM1019.3 372.2C1021.28 372.838 1023.29 373.508 1025.33 374.21L1025.98 372.318C1023.93 371.612 1021.9 370.938 1019.91 370.296L1019.3 372.2ZM1025.33 374.211C1027.38 374.904 1029.37 375.692 1031.29 376.573L1032.12 374.755C1030.14 373.844 1028.09 373.032 1025.97 372.317L1025.33 374.211ZM1031.3 376.581C1033.2 377.406 1034.87 378.456 1036.32 379.729L1037.64 378.223C1036.02 376.808 1034.17 375.65 1032.1 374.747L1031.3 376.581ZM1036.33 379.735C1037.79 380.984 1038.95 382.518 1039.82 384.349L1041.63 383.491C1040.64 381.418 1039.31 379.656 1037.63 378.217L1036.33 379.735ZM1039.83 384.361C1040.7 386.14 1041.17 388.38 1041.17 391.12H1043.17C1043.17 388.164 1042.67 385.604 1041.62 383.479L1039.83 384.361ZM1041.17 391.12C1041.17 394.012 1040.67 396.721 1039.7 399.256L1041.56 399.976C1042.63 397.199 1043.17 394.244 1043.17 391.12H1041.17ZM1039.7 399.252C1038.73 401.747 1037.3 403.915 1035.42 405.767L1036.82 407.193C1038.91 405.141 1040.49 402.733 1041.56 399.98L1039.7 399.252ZM1035.41 405.773C1033.57 407.616 1031.27 409.08 1028.51 410.156L1029.23 412.02C1032.23 410.856 1034.76 409.248 1036.83 407.187L1035.41 405.773ZM1028.5 410.157C1025.79 411.224 1022.67 411.768 1019.13 411.768V413.768C1022.88 413.768 1026.25 413.192 1029.24 412.019L1028.5 410.157ZM1019.13 411.768C1014.77 411.768 1010.84 410.99 1007.34 409.452L1006.53 411.284C1010.32 412.946 1014.53 413.768 1019.13 413.768V411.768ZM1007.34 409.455C1003.81 407.874 1000.8 405.757 998.302 403.106L996.846 404.478C999.534 407.331 1002.76 409.598 1006.53 411.281L1007.34 409.455ZM998.428 404.312L1001.12 399.896L999.408 398.856L996.72 403.272L998.428 404.312ZM1001.07 399.964C1001.26 399.709 1001.47 399.509 1001.71 399.356L1000.64 397.668C1000.17 397.963 999.78 398.339 999.454 398.788L1001.07 399.964ZM1001.73 399.344C1001.95 399.194 1002.18 399.128 1002.42 399.128V397.128C1001.77 397.128 1001.16 397.318 1000.62 397.68L1001.73 399.344ZM1002.42 399.128C1002.56 399.128 1002.82 399.189 1003.25 399.48L1004.38 397.832C1003.78 397.419 1003.12 397.128 1002.42 397.128V399.128ZM1003.31 399.518C1003.81 399.812 1004.38 400.204 1005.03 400.699L1006.24 399.109C1005.55 398.58 1004.91 398.14 1004.32 397.794L1003.31 399.518ZM1005.03 400.699C1005.72 401.221 1006.49 401.788 1007.37 402.402L1008.52 400.766C1007.66 400.164 1006.9 399.611 1006.24 399.109L1005.03 400.699ZM1007.37 402.402C1008.28 403.047 1009.31 403.635 1010.44 404.169L1011.3 402.359C1010.25 401.868 1009.33 401.337 1008.52 400.766L1007.37 402.402ZM1010.45 404.173C1011.64 404.715 1012.96 405.166 1014.42 405.53L1014.9 403.59C1013.55 403.25 1012.34 402.837 1011.29 402.355L1010.45 404.173ZM1014.44 405.535C1015.94 405.875 1017.6 406.04 1019.41 406.04V404.04C1017.71 404.04 1016.21 403.885 1014.88 403.585L1014.44 405.535ZM1019.41 406.04C1021.71 406.04 1023.8 405.724 1025.65 405.071L1024.99 403.185C1023.38 403.748 1021.53 404.04 1019.41 404.04V406.04ZM1025.65 405.071C1027.49 404.425 1029.07 403.512 1030.36 402.32L1029.01 400.848C1027.94 401.832 1026.6 402.615 1024.99 403.185L1025.65 405.071ZM1030.36 402.32C1031.69 401.101 1032.7 399.653 1033.39 397.985L1031.55 397.215C1030.96 398.619 1030.12 399.827 1029.01 400.848L1030.36 402.32ZM1033.39 397.985C1034.09 396.311 1034.43 394.466 1034.43 392.464H1032.43C1032.43 394.238 1032.13 395.817 1031.55 397.215L1033.39 397.985ZM1034.43 392.464C1034.43 390.231 1033.91 388.311 1032.8 386.785L1031.18 387.967C1031.99 389.065 1032.43 390.537 1032.43 392.464H1034.43ZM1032.81 386.808C1031.79 385.333 1030.45 384.115 1028.8 383.152L1027.79 384.88C1029.21 385.709 1030.33 386.731 1031.17 387.944L1032.81 386.808ZM1028.8 383.152C1027.19 382.212 1025.35 381.431 1023.31 380.804L1022.72 382.716C1024.64 383.305 1026.33 384.028 1027.79 384.88L1028.8 383.152ZM1023.32 380.808C1021.33 380.167 1019.32 379.526 1017.26 378.886L1016.67 380.794C1018.71 381.434 1020.73 382.073 1022.71 382.712L1023.32 380.808ZM1017.28 378.89C1015.26 378.228 1013.27 377.471 1011.32 376.619L1010.52 378.453C1012.53 379.329 1014.58 380.108 1016.65 380.79L1017.28 378.89ZM1011.32 376.619C1009.43 375.796 1007.76 374.732 1006.31 373.431L1004.97 374.921C1006.59 376.372 1008.44 377.548 1010.52 378.453L1011.32 376.619ZM1006.31 373.431C1004.88 372.153 1003.71 370.554 1002.8 368.616L1000.99 369.464C1002 371.622 1003.33 373.447 1004.97 374.921L1006.31 373.431ZM1002.81 368.633C1001.95 366.716 1001.5 364.304 1001.5 361.36H999.502C999.502 364.496 999.98 367.204 1000.98 369.447L1002.81 368.633ZM1001.5 361.36C1001.5 359.059 1001.94 356.835 1002.82 354.682L1000.97 353.926C999.992 356.317 999.502 358.797 999.502 361.36H1001.5ZM1002.82 354.693C1003.72 352.545 1005.02 350.639 1006.72 348.969L1005.32 347.543C1003.44 349.393 1001.99 351.519 1000.97 353.915L1002.82 354.693ZM1006.72 348.976C1008.44 347.315 1010.55 345.973 1013.07 344.96L1012.32 343.104C1009.59 344.203 1007.25 345.677 1005.33 347.536L1006.72 348.976ZM1013.06 344.961C1015.58 343.96 1018.49 343.448 1021.81 343.448V341.448C1018.29 341.448 1015.12 341.992 1012.32 343.103L1013.06 344.961ZM1021.81 343.448C1025.55 343.448 1028.91 344.039 1031.92 345.204L1032.64 343.34C1029.37 342.073 1025.76 341.448 1021.81 341.448V343.448ZM1031.92 345.206C1034.97 346.375 1037.64 348.064 1039.94 350.273L1041.32 348.831C1038.82 346.432 1035.93 344.601 1032.64 343.338L1031.92 345.206ZM1039.74 349.097L1037.48 353.513L1039.26 354.423L1041.52 350.007L1039.74 349.097ZM1090.62 386.464V387.464H1092.08L1091.56 386.104L1090.62 386.464ZM1079.82 358.48L1078.89 358.839L1078.89 358.84L1079.82 358.48ZM1078.82 355.6L1077.86 355.9L1077.87 355.908L1078.82 355.6ZM1077.81 352.048L1078.78 351.8L1076.84 351.797L1077.81 352.048ZM1075.74 358.528L1074.82 358.151L1074.82 358.159L1074.81 358.167L1075.74 358.528ZM1064.94 386.464L1064.01 386.103L1063.49 387.464H1064.94V386.464ZM1110.02 412V413H1111.49L1110.95 411.629L1110.02 412ZM1100.8 411.376L1100.17 412.152L1100.17 412.152L1100.8 411.376ZM1099.65 409.792L1098.72 410.153L1098.72 410.163L1099.65 409.792ZM1093.22 393.184L1094.15 392.823L1093.9 392.184H1093.22V393.184ZM1062.35 393.184V392.184H1061.67L1061.42 392.823L1062.35 393.184ZM1055.92 409.792L1054.99 409.431L1054.98 409.453L1054.97 409.476L1055.92 409.792ZM1054.82 411.328L1055.45 412.1L1055.45 412.1L1054.82 411.328ZM1045.6 412L1044.67 411.629L1044.12 413H1045.6V412ZM1073.1 343.216V342.216H1072.43L1072.18 342.845L1073.1 343.216ZM1082.51 343.216L1083.44 342.845L1083.19 342.216H1082.51V343.216ZM1091.56 386.104L1080.76 358.12L1078.89 358.84L1089.69 386.824L1091.56 386.104ZM1080.76 358.121C1080.45 357.31 1080.12 356.367 1079.77 355.292L1077.87 355.908C1078.22 357.009 1078.56 357.986 1078.89 358.839L1080.76 358.121ZM1079.77 355.3C1079.42 354.199 1079.09 353.032 1078.78 351.8L1076.84 352.296C1077.16 353.56 1077.5 354.761 1077.86 355.9L1079.77 355.3ZM1076.84 351.797C1076.18 354.363 1075.5 356.477 1074.82 358.151L1076.67 358.905C1077.4 357.123 1078.1 354.917 1078.78 352.299L1076.84 351.797ZM1074.81 358.167L1064.01 386.103L1065.88 386.825L1076.68 358.889L1074.81 358.167ZM1064.94 387.464H1090.62V385.464H1064.94V387.464ZM1110.02 411H1102.82V413H1110.02V411ZM1102.82 411C1102.15 411 1101.72 410.837 1101.43 410.6L1100.17 412.152C1100.9 412.747 1101.82 413 1102.82 413V411ZM1101.43 410.6C1101.06 410.296 1100.77 409.91 1100.58 409.421L1098.72 410.163C1099.04 410.954 1099.52 411.624 1100.17 412.152L1101.43 410.6ZM1100.58 409.431L1094.15 392.823L1092.28 393.545L1098.72 410.153L1100.58 409.431ZM1093.22 392.184H1062.35V394.184H1093.22V392.184ZM1061.42 392.823L1054.99 409.431L1056.85 410.153L1063.29 393.545L1061.42 392.823ZM1054.97 409.476C1054.85 409.846 1054.6 410.208 1054.18 410.556L1055.45 412.1C1056.12 411.552 1056.61 410.89 1056.87 410.108L1054.97 409.476ZM1054.18 410.556C1053.84 410.837 1053.4 411 1052.8 411V413C1053.8 413 1054.71 412.715 1055.45 412.1L1054.18 410.556ZM1052.8 411H1045.6V413H1052.8V411ZM1046.53 412.371L1074.03 343.587L1072.18 342.845L1044.67 411.629L1046.53 412.371ZM1073.1 344.216H1082.51V342.216H1073.1V344.216ZM1081.58 343.587L1109.09 412.371L1110.95 411.629L1083.44 342.845L1081.58 343.587ZM1174.79 343.216H1175.79V342.216H1174.79V343.216ZM1174.79 412V413H1175.79V412H1174.79ZM1168.27 411.616L1167.79 412.498L1167.81 412.505L1167.82 412.51L1168.27 411.616ZM1166.83 410.32L1166.03 410.929L1166.04 410.94L1166.83 410.32ZM1127.03 358.48L1127.83 357.871L1125.77 355.188L1126.04 358.56L1127.03 358.48ZM1127.18 360.832L1128.18 360.79L1128.18 360.79L1127.18 360.832ZM1127.23 412V413H1128.23V412H1127.23ZM1119.07 412H1118.07V413H1119.07V412ZM1119.07 343.216V342.216H1118.07V343.216H1119.07ZM1124.92 343.312L1124.7 344.288L1124.76 344.3L1124.81 344.306L1124.92 343.312ZM1125.69 343.552L1125.19 344.42L1125.24 344.449L1125.3 344.471L1125.69 343.552ZM1126.36 344.032L1125.65 344.739L1125.68 344.766L1125.71 344.791L1126.36 344.032ZM1127.08 344.8L1127.87 344.191L1127.87 344.183L1127.86 344.175L1127.08 344.8ZM1166.87 396.592L1166.08 397.201L1168.13 399.867L1167.87 396.515L1166.87 396.592ZM1166.68 394.192L1165.68 394.232L1165.68 394.254L1165.68 394.275L1166.68 394.192ZM1166.63 343.216V342.216H1165.63V343.216H1166.63ZM1173.79 343.216V412H1175.79V343.216H1173.79ZM1174.79 411H1170.14V413H1174.79V411ZM1170.14 411C1169.51 411 1169.05 410.891 1168.71 410.722L1167.82 412.51C1168.5 412.853 1169.29 413 1170.14 413V411ZM1168.74 410.734C1168.42 410.564 1168.04 410.243 1167.61 409.7L1166.04 410.94C1166.57 411.613 1167.15 412.156 1167.79 412.498L1168.74 410.734ZM1167.62 409.711L1127.83 357.871L1126.24 359.089L1166.03 410.929L1167.62 409.711ZM1126.04 358.56C1126.1 359.348 1126.15 360.119 1126.18 360.874L1128.18 360.79C1128.14 360.009 1128.1 359.212 1128.03 358.4L1126.04 358.56ZM1126.18 360.874C1126.21 361.63 1126.23 362.336 1126.23 362.992H1128.23C1128.23 362.304 1128.21 361.57 1128.18 360.79L1126.18 360.874ZM1126.23 362.992V412H1128.23V362.992H1126.23ZM1127.23 411H1119.07V413H1127.23V411ZM1120.07 412V343.216H1118.07V412H1120.07ZM1119.07 344.216H1123.87V342.216H1119.07V344.216ZM1123.87 344.216C1124.24 344.216 1124.51 344.245 1124.7 344.288L1125.14 342.336C1124.76 342.251 1124.33 342.216 1123.87 342.216V344.216ZM1124.81 344.306C1124.98 344.325 1125.1 344.368 1125.19 344.42L1126.19 342.684C1125.83 342.48 1125.44 342.363 1125.03 342.318L1124.81 344.306ZM1125.3 344.471C1125.37 344.504 1125.49 344.579 1125.65 344.739L1127.07 343.325C1126.78 343.037 1126.45 342.792 1126.08 342.633L1125.3 344.471ZM1125.71 344.791C1125.87 344.93 1126.07 345.136 1126.3 345.425L1127.86 344.175C1127.58 343.824 1127.3 343.518 1127.01 343.273L1125.71 344.791ZM1126.29 345.409L1166.08 397.201L1167.67 395.983L1127.87 344.191L1126.29 345.409ZM1167.87 396.515C1167.81 395.681 1167.74 394.879 1167.68 394.109L1165.68 394.275C1165.75 395.041 1165.81 395.839 1165.88 396.669L1167.87 396.515ZM1167.68 394.152C1167.65 393.364 1167.63 392.625 1167.63 391.936H1165.63C1165.63 392.655 1165.65 393.42 1165.68 394.232L1167.68 394.152ZM1167.63 391.936V343.216H1165.63V391.936H1167.63ZM1166.63 344.216H1174.79V342.216H1166.63V344.216ZM1242.01 398.416L1241.27 399.094L1241.28 399.096L1242.01 398.416ZM1245.71 402.4L1246.46 403.053L1247.05 402.376L1246.44 401.72L1245.71 402.4ZM1235.43 410.032L1235.02 409.121L1235.02 409.122L1235.43 410.032ZM1207.45 410.224L1207.06 411.143L1207.06 411.146L1207.45 410.224ZM1197.13 403.024L1196.39 403.7L1196.4 403.704L1197.13 403.024ZM1190.51 391.888L1191.45 391.547L1191.45 391.547L1190.51 391.888ZM1190.6 363.376L1191.54 363.729L1191.54 363.729L1190.6 363.376ZM1197.47 352.24L1196.74 351.548L1196.74 351.552L1197.47 352.24ZM1208.12 345.04L1208.5 345.965L1208.51 345.962L1208.12 345.04ZM1234.76 344.8L1235.15 343.878L1235.15 343.878L1234.76 344.8ZM1244.65 351.184L1245.46 351.768L1245.97 351.057L1245.34 350.457L1244.65 351.184ZM1241.58 355.456L1240.77 354.872L1240.74 354.906L1240.72 354.941L1241.58 355.456ZM1240.81 356.272L1241.36 357.104L1241.37 357.098L1241.38 357.091L1240.81 356.272ZM1237.5 355.648L1236.89 356.441L1236.9 356.448L1236.91 356.455L1237.5 355.648ZM1234.23 353.536L1234.73 352.668L1234.73 352.668L1234.23 353.536ZM1229.19 351.472L1228.89 352.425L1228.9 352.427L1228.91 352.429L1229.19 351.472ZM1212.01 352.384L1212.39 353.308L1212.4 353.305L1212.01 352.384ZM1204.38 357.712L1203.64 357.036L1203.64 357.041L1204.38 357.712ZM1199.48 389.104L1198.54 389.444L1198.54 389.452L1199.48 389.104ZM1204.52 397.648L1203.78 398.319L1203.78 398.324L1203.79 398.329L1204.52 397.648ZM1212.06 402.928L1211.67 403.849L1211.67 403.851L1212.06 402.928ZM1226.99 404.416L1227.12 405.407L1227.13 405.406L1227.14 405.404L1226.99 404.416ZM1231.55 403.264L1231.2 402.324L1231.2 402.327L1231.55 403.264ZM1235.43 401.344L1235.98 402.183L1235.98 402.179L1235.43 401.344ZM1239.03 398.512L1238.37 397.762L1238.36 397.769L1238.36 397.776L1239.03 398.512ZM1240.67 398.792C1240.87 398.792 1241.06 398.859 1241.27 399.094L1242.74 397.738C1242.19 397.141 1241.49 396.792 1240.67 396.792V398.792ZM1241.28 399.096L1244.97 403.08L1246.44 401.72L1242.74 397.736L1241.28 399.096ZM1244.95 401.747C1242.23 404.898 1238.92 407.355 1235.02 409.121L1235.85 410.943C1240.01 409.061 1243.55 406.43 1246.46 403.053L1244.95 401.747ZM1235.02 409.122C1231.18 410.872 1226.48 411.768 1220.89 411.768V413.768C1226.69 413.768 1231.69 412.84 1235.85 410.942L1235.02 409.122ZM1220.89 411.768C1216.08 411.768 1211.73 410.94 1207.84 409.302L1207.06 411.146C1211.23 412.9 1215.85 413.768 1220.89 413.768V411.768ZM1207.84 409.305C1203.93 407.629 1200.61 405.309 1197.86 402.344L1196.4 403.704C1199.34 406.883 1202.9 409.363 1207.06 411.143L1207.84 409.305ZM1197.87 402.348C1195.12 399.35 1192.97 395.754 1191.45 391.547L1189.57 392.229C1191.17 396.662 1193.45 400.49 1196.39 403.7L1197.87 402.348ZM1191.45 391.547C1189.92 387.349 1189.15 382.714 1189.15 377.632H1187.15C1187.15 382.918 1187.95 387.787 1189.57 392.229L1191.45 391.547ZM1189.15 377.632C1189.15 372.554 1189.95 367.923 1191.54 363.729L1189.67 363.023C1187.99 367.469 1187.15 372.342 1187.15 377.632H1189.15ZM1191.54 363.729C1193.13 359.524 1195.35 355.928 1198.19 352.928L1196.74 351.552C1193.7 354.76 1191.34 358.588 1189.67 363.023L1191.54 363.729ZM1198.19 352.932C1201.06 349.932 1204.5 347.61 1208.5 345.965L1207.74 344.115C1203.49 345.862 1199.82 348.34 1196.74 351.548L1198.19 352.932ZM1208.51 345.962C1212.5 344.291 1216.93 343.448 1221.8 343.448V341.448C1216.69 341.448 1212 342.333 1207.74 344.118L1208.51 345.962ZM1221.8 343.448C1226.59 343.448 1230.78 344.215 1234.38 345.722L1235.15 343.878C1231.26 342.249 1226.8 341.448 1221.8 341.448V343.448ZM1234.38 345.722C1238.01 347.246 1241.21 349.309 1243.96 351.911L1245.34 350.457C1242.4 347.683 1239 345.49 1235.15 343.878L1234.38 345.722ZM1243.84 350.6L1240.77 354.872L1242.39 356.04L1245.46 351.768L1243.84 350.6ZM1240.72 354.941C1240.6 355.135 1240.45 355.305 1240.24 355.453L1241.38 357.091C1241.81 356.791 1242.17 356.416 1242.44 355.97L1240.72 354.941ZM1240.26 355.44C1240.19 355.482 1240.01 355.56 1239.61 355.56V357.56C1240.23 357.56 1240.85 357.446 1241.36 357.104L1240.26 355.44ZM1239.61 355.56C1239.36 355.56 1238.87 355.41 1238.09 354.841L1236.91 356.455C1237.79 357.102 1238.71 357.56 1239.61 357.56V355.56ZM1238.11 354.855C1237.23 354.178 1236.1 353.449 1234.73 352.668L1233.74 354.404C1235.06 355.159 1236.1 355.838 1236.89 356.441L1238.11 354.855ZM1234.73 352.668C1233.3 351.852 1231.55 351.137 1229.48 350.515L1228.91 352.429C1230.87 353.023 1232.48 353.684 1233.74 354.404L1234.73 352.668ZM1229.5 350.519C1227.35 349.838 1224.76 349.512 1221.75 349.512V351.512C1224.63 351.512 1227 351.826 1228.89 352.425L1229.5 350.519ZM1221.75 349.512C1218.08 349.512 1214.7 350.157 1211.62 351.463L1212.4 353.305C1215.21 352.115 1218.32 351.512 1221.75 351.512V349.512ZM1211.63 351.46C1208.55 352.731 1205.88 354.592 1203.64 357.036L1205.11 358.388C1207.16 356.16 1209.58 354.469 1212.39 353.308L1211.63 351.46ZM1203.64 357.041C1201.42 359.488 1199.71 362.455 1198.49 365.924L1200.38 366.588C1201.52 363.337 1203.11 360.608 1205.12 358.383L1203.64 357.041ZM1198.49 365.924C1197.26 369.408 1196.66 373.315 1196.66 377.632H1198.66C1198.66 373.501 1199.24 369.824 1200.38 366.588L1198.49 365.924ZM1196.66 377.632C1196.66 382.013 1197.28 385.956 1198.54 389.444L1200.42 388.764C1199.25 385.532 1198.66 381.827 1198.66 377.632H1196.66ZM1198.54 389.452C1199.83 392.915 1201.57 395.876 1203.78 398.319L1205.26 396.977C1203.25 394.748 1201.63 392.013 1200.42 388.756L1198.54 389.452ZM1203.79 398.329C1206.03 400.736 1208.66 402.578 1211.67 403.849L1212.45 402.007C1209.7 400.846 1207.3 399.168 1205.25 396.967L1203.79 398.329ZM1211.67 403.851C1214.71 405.121 1217.98 405.752 1221.47 405.752V403.752C1218.23 403.752 1215.23 403.167 1212.44 402.005L1211.67 403.851ZM1221.47 405.752C1223.55 405.752 1225.44 405.638 1227.12 405.407L1226.85 403.425C1225.27 403.642 1223.48 403.752 1221.47 403.752V405.752ZM1227.14 405.404C1228.86 405.14 1230.45 404.74 1231.89 404.201L1231.2 402.327C1229.89 402.812 1228.44 403.18 1226.83 403.428L1227.14 405.404ZM1231.89 404.204C1233.36 403.668 1234.73 402.995 1235.98 402.183L1234.89 400.505C1233.77 401.229 1232.55 401.836 1231.2 402.324L1231.89 404.204ZM1235.98 402.179C1237.25 401.347 1238.49 400.369 1239.71 399.248L1238.36 397.776C1237.21 398.831 1236.05 399.741 1234.88 400.509L1235.98 402.179ZM1239.7 399.262C1240.12 398.889 1240.44 398.792 1240.67 398.792V396.792C1239.81 396.792 1239.04 397.175 1238.37 397.762L1239.7 399.262ZM1312.23 343.216H1313.23V342.216H1312.23V343.216ZM1312.23 412V413H1313.23V412H1312.23ZM1302.92 412H1301.92V413H1302.92V412ZM1302.92 380.704H1303.92V379.704H1302.92V380.704ZM1265.81 380.704V379.704H1264.81V380.704H1265.81ZM1265.81 412V413H1266.81V412H1265.81ZM1256.5 412H1255.5V413H1256.5V412ZM1256.5 343.216V342.216H1255.5V343.216H1256.5ZM1265.81 343.216H1266.81V342.216H1265.81V343.216ZM1265.81 373.888H1264.81V374.888H1265.81V373.888ZM1302.92 373.888V374.888H1303.92V373.888H1302.92ZM1302.92 343.216V342.216H1301.92V343.216H1302.92ZM1311.23 343.216V412H1313.23V343.216H1311.23ZM1312.23 411H1302.92V413H1312.23V411ZM1303.92 412V380.704H1301.92V412H1303.92ZM1302.92 379.704H1265.81V381.704H1302.92V379.704ZM1264.81 380.704V412H1266.81V380.704H1264.81ZM1265.81 411H1256.5V413H1265.81V411ZM1257.5 412V343.216H1255.5V412H1257.5ZM1256.5 344.216H1265.81V342.216H1256.5V344.216ZM1264.81 343.216V373.888H1266.81V343.216H1264.81ZM1265.81 374.888H1302.92V372.888H1265.81V374.888ZM1303.92 373.888V343.216H1301.92V373.888H1303.92ZM1302.92 344.216H1312.23V342.216H1302.92V344.216ZM1366.34 386.464V387.464H1367.8L1367.28 386.104L1366.34 386.464ZM1355.54 358.48L1354.61 358.839L1354.61 358.84L1355.54 358.48ZM1354.54 355.6L1353.58 355.9L1353.58 355.908L1354.54 355.6ZM1353.53 352.048L1354.5 351.8L1352.56 351.797L1353.53 352.048ZM1351.46 358.528L1350.54 358.151L1350.53 358.159L1350.53 358.167L1351.46 358.528ZM1340.66 386.464L1339.73 386.103L1339.2 387.464H1340.66V386.464ZM1385.74 412V413H1387.21L1386.66 411.629L1385.74 412ZM1376.52 411.376L1375.89 412.152L1375.89 412.152L1376.52 411.376ZM1375.37 409.792L1374.43 410.153L1374.44 410.163L1375.37 409.792ZM1368.94 393.184L1369.87 392.823L1369.62 392.184H1368.94V393.184ZM1338.07 393.184V392.184H1337.39L1337.14 392.823L1338.07 393.184ZM1331.64 409.792L1330.71 409.431L1330.7 409.453L1330.69 409.476L1331.64 409.792ZM1330.54 411.328L1331.17 412.1L1331.17 412.1L1330.54 411.328ZM1321.32 412L1320.39 411.629L1319.84 413H1321.32V412ZM1348.82 343.216V342.216H1348.15L1347.89 342.845L1348.82 343.216ZM1358.23 343.216L1359.16 342.845L1358.91 342.216H1358.23V343.216ZM1367.28 386.104L1356.48 358.12L1354.61 358.84L1365.41 386.824L1367.28 386.104ZM1356.48 358.121C1356.16 357.31 1355.83 356.367 1355.49 355.292L1353.58 355.908C1353.94 357.009 1354.28 357.986 1354.61 358.839L1356.48 358.121ZM1355.49 355.3C1355.14 354.199 1354.81 353.032 1354.5 351.8L1352.56 352.296C1352.88 353.56 1353.22 354.761 1353.58 355.9L1355.49 355.3ZM1352.56 351.797C1351.89 354.363 1351.22 356.477 1350.54 358.151L1352.39 358.905C1353.12 357.123 1353.82 354.917 1354.5 352.299L1352.56 351.797ZM1350.53 358.167L1339.73 386.103L1341.6 386.825L1352.4 358.889L1350.53 358.167ZM1340.66 387.464H1366.34V385.464H1340.66V387.464ZM1385.74 411H1378.54V413H1385.74V411ZM1378.54 411C1377.87 411 1377.44 410.837 1377.15 410.6L1375.89 412.152C1376.62 412.747 1377.53 413 1378.54 413V411ZM1377.15 410.6C1376.78 410.296 1376.49 409.91 1376.3 409.421L1374.44 410.163C1374.76 410.954 1375.24 411.624 1375.89 412.152L1377.15 410.6ZM1376.3 409.431L1369.87 392.823L1368 393.545L1374.43 410.153L1376.3 409.431ZM1368.94 392.184H1338.07V394.184H1368.94V392.184ZM1337.14 392.823L1330.71 409.431L1332.57 410.153L1339 393.545L1337.14 392.823ZM1330.69 409.476C1330.57 409.846 1330.32 410.208 1329.9 410.556L1331.17 412.1C1331.84 411.552 1332.33 410.89 1332.59 410.108L1330.69 409.476ZM1329.9 410.556C1329.56 410.837 1329.12 411 1328.52 411V413C1329.52 413 1330.42 412.715 1331.17 412.1L1329.9 410.556ZM1328.52 411H1321.32V413H1328.52V411ZM1322.25 412.371L1349.75 343.587L1347.89 342.845L1320.39 411.629L1322.25 412.371ZM1348.82 344.216H1358.23V342.216H1348.82V344.216ZM1357.3 343.587L1384.81 412.371L1386.66 411.629L1359.16 342.845L1357.3 343.587ZM1203.34 448.6V447.6H1202.34V448.6H1203.34ZM1201.32 508.216V507.216H1201.3L1201.27 507.217L1201.32 508.216ZM1189.37 508.144L1189.41 507.145L1187.57 507.07L1188.51 508.653L1189.37 508.144ZM1191.6 513.832L1190.62 514.011L1190.77 514.832H1191.6V513.832ZM1205.5 512.752L1205.18 511.803L1205.17 511.807L1205.16 511.811L1205.5 512.752ZM1209.17 448.6H1210.17V447.6H1209.17V448.6ZM1220.76 466.96L1220.4 466.028L1219.3 466.456L1219.9 467.471L1220.76 466.96ZM1234.44 499.288L1233.46 499.487L1233.7 500.661L1234.81 500.216L1234.44 499.288ZM1240.2 496.984L1240.57 497.912L1241.35 497.599L1241.18 496.774L1240.2 496.984ZM1225.94 464.944L1226.8 464.419L1226.36 463.71L1225.58 464.012L1225.94 464.944ZM1184.47 465.448L1184.64 464.462L1183.67 464.3L1183.49 465.266L1184.47 465.448ZM1172.3 495.256L1171.54 494.613L1170.65 495.671L1171.93 496.184L1172.3 495.256ZM1177.42 498.136L1176.8 498.925L1177.57 499.526L1178.19 498.767L1177.42 498.136ZM1190.52 466.456L1191.5 466.675L1191.73 465.643L1190.68 465.47L1190.52 466.456ZM1202.34 448.6V506.272H1204.34V448.6H1202.34ZM1202.34 506.272C1202.34 506.926 1202.21 507.055 1202.2 507.067C1202.18 507.087 1202.02 507.216 1201.32 507.216V509.216C1202.13 509.216 1202.98 509.093 1203.59 508.501C1204.21 507.901 1204.34 507.058 1204.34 506.272H1202.34ZM1201.27 507.217C1199.87 507.287 1194.71 507.36 1189.41 507.145L1189.33 509.143C1194.68 509.36 1199.89 509.289 1201.37 509.215L1201.27 507.217ZM1188.51 508.653C1189.4 510.158 1190.35 512.567 1190.62 514.011L1192.58 513.653C1192.27 511.929 1191.21 509.298 1190.23 507.635L1188.51 508.653ZM1191.6 514.832C1195.02 514.832 1197.88 514.796 1200.21 514.641C1202.53 514.486 1204.4 514.21 1205.84 513.693L1205.16 511.811C1204 512.23 1202.35 512.494 1200.07 512.645C1197.82 512.796 1195.02 512.832 1191.6 512.832V514.832ZM1205.81 513.701C1207.25 513.221 1208.41 512.491 1209.17 511.208C1209.9 509.97 1210.17 508.35 1210.17 506.272H1208.17C1208.17 508.226 1207.9 509.414 1207.44 510.192C1207.01 510.925 1206.33 511.419 1205.18 511.803L1205.81 513.701ZM1210.17 506.272V448.6H1208.17V506.272H1210.17ZM1209.17 447.6H1203.34V449.6H1209.17V447.6ZM1219.9 467.471C1225.99 477.714 1231.76 491.141 1233.46 499.487L1235.42 499.089C1233.66 490.443 1227.77 476.798 1221.62 466.449L1219.9 467.471ZM1234.81 500.216L1240.57 497.912L1239.83 496.056L1234.07 498.36L1234.81 500.216ZM1241.18 496.774C1239.27 487.903 1233.09 474.615 1226.8 464.419L1225.09 465.469C1231.33 475.577 1237.38 488.641 1239.22 497.194L1241.18 496.774ZM1225.58 464.012L1220.4 466.028L1221.12 467.892L1226.31 465.876L1225.58 464.012ZM1183.49 465.266C1181.7 474.934 1177.78 487.182 1171.54 494.613L1173.07 495.899C1179.65 488.066 1183.65 475.402 1185.46 465.63L1183.49 465.266ZM1171.93 496.184C1173.3 496.732 1175.59 497.984 1176.8 498.925L1178.03 497.347C1176.65 496.272 1174.19 494.932 1172.68 494.328L1171.93 496.184ZM1178.19 498.767C1184.9 490.51 1189.12 477.28 1191.5 466.675L1189.54 466.237C1187.17 476.8 1183.04 489.634 1176.64 497.505L1178.19 498.767ZM1190.68 465.47L1184.64 464.462L1184.31 466.434L1190.36 467.442L1190.68 465.47ZM1250.86 454.576V453.576H1249.86V454.576H1250.86ZM1250.86 459.976H1249.86V460.976H1250.86V459.976ZM1305.29 459.976V460.976H1306.29V459.976H1305.29ZM1305.29 454.576H1306.29V453.576H1305.29V454.576ZM1255.46 478.12V477.12H1254.46V478.12H1255.46ZM1255.46 483.52H1254.46V484.52H1255.46V483.52ZM1299.6 483.52V484.52H1300.6V483.52H1299.6ZM1299.6 478.12H1300.6V477.12H1299.6V478.12ZM1246.68 503.104V502.104H1245.68V503.104H1246.68ZM1246.68 508.576H1245.68V509.576H1246.68V508.576ZM1309.18 508.576V509.576H1310.18V508.576H1309.18ZM1309.18 503.104H1310.18V502.104H1309.18V503.104ZM1249.86 454.576V459.976H1251.86V454.576H1249.86ZM1250.86 460.976H1305.29V458.976H1250.86V460.976ZM1306.29 459.976V454.576H1304.29V459.976H1306.29ZM1305.29 453.576H1250.86V455.576H1305.29V453.576ZM1254.46 478.12V483.52H1256.46V478.12H1254.46ZM1255.46 484.52H1299.6V482.52H1255.46V484.52ZM1300.6 483.52V478.12H1298.6V483.52H1300.6ZM1299.6 477.12H1255.46V479.12H1299.6V477.12ZM1245.68 503.104V508.576H1247.68V503.104H1245.68ZM1246.68 509.576H1309.18V507.576H1246.68V509.576ZM1310.18 508.576V503.104H1308.18V508.576H1310.18ZM1309.18 502.104H1246.68V504.104H1309.18V502.104ZM1326.96 485.536V484.536H1325.96V485.536H1326.96ZM1326.96 490.648H1325.96V491.648H1326.96V490.648ZM1372.97 490.648V491.648H1373.97V490.648H1372.97ZM1372.97 485.536H1373.97V484.536H1372.97V485.536ZM1346.9 476.968V475.968H1345.9V476.968H1346.9ZM1346.9 513.832H1345.9V514.832H1346.9V513.832ZM1352.38 513.832V514.832H1353.38V513.832H1352.38ZM1352.38 476.968H1353.38V475.968H1352.38V476.968ZM1333.22 494.464L1333.51 493.506L1332.75 493.279L1332.36 493.967L1333.22 494.464ZM1319.04 508.288L1318.53 507.43L1317.11 508.278L1318.52 509.141L1319.04 508.288ZM1323.58 511.96L1322.84 512.642L1323.43 513.272L1324.14 512.784L1323.58 511.96ZM1338.77 496.12L1339.63 496.623L1340.27 495.525L1339.05 495.162L1338.77 496.12ZM1360.15 497.128L1359.58 496.307L1358.46 497.089L1359.54 497.922L1360.15 497.128ZM1375.34 511.6L1374.54 512.2L1375.13 512.976L1375.92 512.418L1375.34 511.6ZM1379.95 508.36L1380.53 509.178L1381.39 508.57L1380.74 507.74L1379.95 508.36ZM1364.4 494.176L1365 493.377L1364.42 492.942L1363.83 493.355L1364.4 494.176ZM1349.78 467.32L1350.55 466.673L1349.76 465.748L1349 466.695L1349.78 467.32ZM1380.82 487.192L1380.48 488.133L1381.31 488.433L1381.71 487.639L1380.82 487.192ZM1383.91 482.368L1384.68 483.012L1385.65 481.852L1384.2 481.411L1383.91 482.368ZM1352.23 462.64L1352.99 461.986L1352.69 461.64H1352.23V462.64ZM1346.76 462.64V461.64H1346.26L1345.96 462.042L1346.76 462.64ZM1316.45 483.232L1316.12 482.288L1314.77 482.762L1315.68 483.868L1316.45 483.232ZM1319.26 487.84L1318.33 488.228L1318.71 489.129L1319.62 488.77L1319.26 487.84ZM1318.39 453.784V452.784H1317.39V453.784H1318.39ZM1318.39 458.824H1317.39V459.824H1318.39V458.824ZM1381.75 458.824V459.824H1382.75V458.824H1381.75ZM1381.75 453.784H1382.75V452.784H1381.75V453.784ZM1334.09 447.592V446.592H1333.09V447.592H1334.09ZM1334.09 466.456H1333.09V467.456H1334.09V466.456ZM1339.42 466.456V467.456H1340.42V466.456H1339.42ZM1339.42 447.592H1340.42V446.592H1339.42V447.592ZM1360.01 447.592V446.592H1359.01V447.592H1360.01ZM1360.01 466.456H1359.01V467.456H1360.01V466.456ZM1365.34 466.456V467.456H1366.34V466.456H1365.34ZM1365.34 447.592H1366.34V446.592H1365.34V447.592ZM1325.96 485.536V490.648H1327.96V485.536H1325.96ZM1326.96 491.648H1372.97V489.648H1326.96V491.648ZM1373.97 490.648V485.536H1371.97V490.648H1373.97ZM1372.97 484.536H1326.96V486.536H1372.97V484.536ZM1345.9 476.968V513.832H1347.9V476.968H1345.9ZM1346.9 514.832H1352.38V512.832H1346.9V514.832ZM1353.38 513.832V476.968H1351.38V513.832H1353.38ZM1352.38 475.968H1346.9V477.968H1352.38V475.968ZM1332.36 493.967C1329.36 499.185 1323.96 504.184 1318.53 507.43L1319.55 509.146C1325.21 505.768 1330.89 500.543 1334.09 494.961L1332.36 493.967ZM1318.52 509.141C1319.74 509.889 1321.9 511.633 1322.84 512.642L1324.31 511.278C1323.23 510.127 1320.93 508.271 1319.56 507.435L1318.52 509.141ZM1324.14 512.784C1329.78 508.907 1335.94 502.973 1339.63 496.623L1337.9 495.617C1334.4 501.651 1328.46 507.381 1323.01 511.136L1324.14 512.784ZM1339.05 495.162L1333.51 493.506L1332.94 495.422L1338.48 497.078L1339.05 495.162ZM1359.54 497.922C1365.05 502.144 1371.6 508.272 1374.54 512.2L1376.14 511C1373.04 506.864 1366.34 500.608 1360.76 496.334L1359.54 497.922ZM1375.92 512.418L1380.53 509.178L1379.38 507.542L1374.77 510.782L1375.92 512.418ZM1380.74 507.74C1377.41 503.532 1370.56 497.566 1365 493.377L1363.8 494.975C1369.33 499.138 1376.01 504.98 1379.17 508.98L1380.74 507.74ZM1363.83 493.355L1359.58 496.307L1360.72 497.949L1364.97 494.997L1363.83 493.355ZM1349.02 467.967C1356.08 476.281 1369.36 484.137 1380.48 488.133L1381.15 486.251C1370.24 482.327 1357.31 474.631 1350.55 466.673L1349.02 467.967ZM1381.71 487.639C1382.41 486.246 1383.59 484.302 1384.68 483.012L1383.15 481.724C1381.93 483.17 1380.66 485.258 1379.92 486.745L1381.71 487.639ZM1384.2 481.411C1372.97 477.998 1360.62 470.815 1352.99 461.986L1351.48 463.294C1359.4 472.465 1372.1 479.826 1383.62 483.325L1384.2 481.411ZM1352.23 461.64H1346.76V463.64H1352.23V461.64ZM1345.96 462.042C1340.2 469.767 1328.5 477.946 1316.12 482.288L1316.78 484.176C1329.45 479.734 1341.51 471.353 1347.56 463.238L1345.96 462.042ZM1315.68 483.868C1316.63 485.02 1317.8 486.953 1318.33 488.228L1320.18 487.452C1319.56 485.991 1318.29 483.892 1317.22 482.596L1315.68 483.868ZM1319.62 488.77C1331.96 483.907 1344.37 475.686 1350.56 467.945L1349 466.695C1343.1 474.074 1331.03 482.125 1318.89 486.91L1319.62 488.77ZM1317.39 453.784V458.824H1319.39V453.784H1317.39ZM1318.39 459.824H1381.75V457.824H1318.39V459.824ZM1382.75 458.824V453.784H1380.75V458.824H1382.75ZM1381.75 452.784H1318.39V454.784H1381.75V452.784ZM1333.09 447.592V466.456H1335.09V447.592H1333.09ZM1334.09 467.456H1339.42V465.456H1334.09V467.456ZM1340.42 466.456V447.592H1338.42V466.456H1340.42ZM1339.42 446.592H1334.09V448.592H1339.42V446.592ZM1359.01 447.592V466.456H1361.01V447.592H1359.01ZM1360.01 467.456H1365.34V465.456H1360.01V467.456ZM1366.34 466.456V447.592H1364.34V466.456H1366.34ZM1365.34 446.592H1360.01V448.592H1365.34V446.592Z" fill="black"/>
</g>
<defs>
<filter id="filter0_f_0_1" x="680.253" y="338.448" width="709.482" height="179.384" filterUnits="userSpaceOnUse" color-interpolation-filters="sRGB">
<feFlood flood-opacity="0" result="BackgroundImageFix"/>
<feBlend mode="normal" in="SourceGraphic" in2="BackgroundImageFix" result="shape"/>
<feGaussianBlur stdDeviation="2" result="effect1_foregroundBlur_0_1"/>
</filter>
</defs>
</svg>
